<svg width="2084" height="570" viewBox="0 0 2084 570" fill="none" xmlns="http://www.w3.org/2000/svg">
<path d="M172.606 155.386C172.606 155.386 71.5622 51.6375 69.0518 52.0488C66.5414 52.4606 107.662 206.752 111.11 202.449C126.288 183.503 158.531 163.231 172.606 155.386Z" fill="white"/>
<path d="M95.4751 77.1211C88.3604 82.9526 85.8539 87.7488 81.0447 93.7517C77.5973 98.0547 66.5425 52.4599 69.0529 52.0482C69.6227 51.9548 81.977 63.566 90.371 71.779L95.4751 77.1211Z" fill="#F37882"/>
<path d="M145.128 127.293C138.014 133.125 127.801 138.137 105.159 183.416C102.692 188.348 89.6207 137.815 92.1311 137.404C92.7009 137.311 112.38 95.4104 120.774 103.623L145.128 127.293Z" fill="#F37882"/>
<path d="M83.9106 99.0721L75.0215 96.0671C75.2575 95.3661 80.9516 78.8294 93.462 72.8835L97.4887 81.358C88.5943 85.5816 83.9561 98.9347 83.9106 99.0721Z" fill="#603913"/>
<path d="M97.0629 146.076L87.75 144.945C87.931 143.447 92.4568 108.088 115.677 95.5312L120.139 103.786C101.204 114.02 97.1017 145.756 97.0629 146.076Z" fill="#603913"/>
<path d="M111.331 193.278L101.977 192.559C102.114 190.767 105.749 148.381 142.492 123.41L147.765 131.17C114.847 153.539 111.363 192.884 111.331 193.278Z" fill="#603913"/>
<path d="M114.773 215.028L111.262 213.727C108.584 212.605 105.815 211.446 84.4203 133.667C82.2857 125.912 63.5935 57.707 64.2988 51.706L64.7085 48.1973L68.291 47.4231C71.4885 46.8734 73.2132 46.6349 182.183 156.805L186.526 161.193L181.132 164.198C165.106 173.136 131.072 194.679 116.984 212.265L114.773 215.028ZM76.2158 64.6061C83.8064 96.301 106.021 178.862 114.255 201.166C130.795 183.745 159.379 166.059 171.234 159.077C138.937 126.466 95.3731 82.8699 76.2158 64.6061Z" fill="#603913"/>
<path d="M344.619 128.528C344.619 128.528 464.876 209.418 479.079 217.925C483.38 220.501 476.244 228.88 475.088 230.443C470.715 236.352 465.784 241.338 459.811 245.681C443.844 257.292 424.903 261.811 405.408 262.082C404.22 262.098 394.073 262.654 393.541 261.532C393.541 261.532 363.506 198.195 357.503 189.108C351.5 180.021 336.988 160.87 329.356 157.6C321.724 154.329 315.049 149.748 315.049 149.748C315.049 149.748 338.078 127.075 344.619 128.528Z" fill="#FEC771"/>
<path d="M398.904 266.938C395.945 266.938 393.842 266.759 392.321 266.224H390.578L389.192 263.31C375.356 234.19 357.729 197.96 353.59 191.693C346.586 181.088 333.267 164.382 327.509 161.913C319.545 158.5 312.683 153.818 312.394 153.617L307.703 150.401L311.757 146.406C323.09 135.247 338.147 122.316 345.635 123.946L346.501 124.139L347.236 124.633C348.438 125.444 467.552 205.55 481.489 213.896C483.359 215.019 484.602 216.801 484.996 218.912C485.851 223.484 482.557 228.477 479.225 232.761L478.858 233.232C474.124 239.631 468.797 244.945 462.571 249.476C447.214 260.639 428.004 266.462 405.473 266.773L404.692 266.801C402.465 266.883 400.55 266.938 398.904 266.938ZM396.817 257.497C398.074 257.557 400.324 257.575 404.339 257.424L405.335 257.392C425.896 257.108 443.294 251.89 457.053 241.89C462.49 237.933 467.158 233.274 471.318 227.653L471.821 226.993C474.22 223.915 475.161 222.174 475.527 221.249C458.086 210.447 356.775 142.357 343.314 133.305C339.927 134.405 331.271 141.001 322.671 148.963C325.044 150.333 328.051 151.941 331.205 153.292C342.417 158.097 361.23 186.242 361.418 186.526C366.831 194.721 390.243 243.686 396.817 257.497Z" fill="#603913"/>
<path d="M39.6301 494.51C39.6301 494.51 443.209 494.51 443.279 494.51C444.244 494.51 439.855 421.523 439.242 415.294C432.868 350.594 411.647 281.029 382.502 222.734C375.622 208.974 357.932 169.649 332.49 153.747C315.74 143.279 302.825 140.922 283.422 137.569C264.019 134.216 242.861 132.739 223.716 138.209C221.302 138.898 235.436 120.283 231.3 113.388C227.163 106.494 211.651 130.28 210.961 133.037C210.272 135.795 219.235 107.872 211.306 98.9101C203.377 89.9472 187.52 128.556 185.796 135.106C184.073 141.655 183.383 148.55 182.694 149.584C182.005 150.618 145.464 169.578 137.88 176.127C130.296 182.677 107.545 206.118 105.476 208.187C103.408 210.255 71.3489 206.808 69.9699 207.842C68.5909 208.876 5.50668 351.591 4.81767 355.728C4.12818 359.865 16.0036 364.627 29.5659 365.645C46.9894 366.952 61.1378 363.452 69.0305 359.944C76.9232 356.437 84.3779 352.051 86.1317 350.297C87.8852 348.544 70.7428 452.36 39.6301 494.51Z" fill="white"/>
<path d="M182.694 149.584C182.566 149.776 144.057 170.793 137.88 176.128C130.296 182.677 107.545 206.119 105.476 208.187C103.408 210.256 71.349 206.808 69.97 207.842C68.5911 208.877 5.50675 351.591 4.81774 355.728C4.12825 359.865 15.9726 366.084 29.5661 365.645C43.1595 365.206 61.1379 363.453 69.0306 359.945C76.9234 356.437 84.378 352.052 86.1319 350.298C86.4967 349.933 86.0447 354.131 84.8199 361.388C84.8199 361.388 250.249 350.298 182.566 149.776" fill="#FEC771"/>
<path d="M47.4481 499.202C44.23 499.202 41.2662 497.461 39.7158 494.663C38.1582 491.85 38.2544 488.396 39.9724 485.652C61.9972 450.444 76.3219 383.865 80.3803 359.554C77.3178 361.226 73.9556 362.889 70.9366 364.231C66.7724 366.082 51.4428 371.982 29.2164 370.324C18.6849 369.531 6.13579 366.274 1.83175 360.791C0.0496182 358.523 -0.0442228 356.366 0.191831 354.96C0.686443 351.991 18.22 311.867 32.8444 278.729C65.0985 205.633 65.9618 204.987 67.1526 204.088C69.1086 202.627 70.4621 202.696 84.5598 203.965C90.8743 204.529 102.182 205.546 105.904 205.289C131.85 175.504 150.297 163.15 171.539 152.957C174.594 151.491 176.555 150.195 178.527 147.369C178.731 146.585 179.063 144.767 179.336 143.268C179.828 140.57 180.438 137.24 181.244 133.979C186.224 113.836 196.89 96.5298 206.057 93.7221C209.172 92.7554 212.159 93.3601 214.449 95.4309C218.164 98.775 219.758 104.469 219.234 112.655C222.944 109.6 227.211 107.928 232.101 108.766C233.846 109.068 235.351 110.127 236.228 111.671C238.34 115.381 236.668 120.782 232.628 131.378C232.522 131.653 232.412 131.941 232.3 132.239C256.114 129.573 282.898 132.849 295.274 135.849C303.67 137.883 332.173 145.601 346.481 159.518C352.108 164.988 366.268 179.592 376.184 196.981C409.509 255.405 428.676 313.445 440.272 391.058C440.416 392.029 453.776 489.707 447.226 497.357L445.833 498.983L443.309 499.203L47.4481 499.202ZM48.4258 489.82H439.891C440.949 474.534 432.99 405.821 430.99 392.44C419.577 316.05 400.749 258.981 368.033 201.624C358.711 185.279 345.28 171.436 339.938 166.241C329.924 156.502 309.159 148.861 293.064 144.963C279.226 141.61 249.541 138.605 226.848 142.467L224.164 142.92L222.203 140.74C220.027 138.088 221.072 135.348 223.861 128.037C224.761 125.673 226.326 121.564 227.178 118.582C223.158 120.538 218.596 126.979 213.786 137.556L211.96 141.573L207.759 140.144C206.213 139.553 203.836 137.872 205.288 133.249C212.318 110.844 209.592 104.326 208.49 102.773C204.976 104.102 195.308 116.177 190.35 136.232C189.594 139.292 189.026 142.416 188.565 144.949C187.807 149.118 187.491 150.84 186.598 152.187C183.386 157.006 179.878 159.36 175.597 161.413C154.662 171.459 137.557 183.034 112.08 212.484C109.712 215.233 106.263 215.329 83.7205 213.309C79.9364 212.97 75.4681 212.567 72.8567 212.429C64.5239 229.717 15.3189 341.44 9.82599 355.577C12.1875 357.341 19.7824 360.204 29.9178 360.969C49.9729 362.476 63.4634 357.281 67.1239 355.655C75.2091 352.064 81.73 348.037 82.8136 346.979L85.775 344.084L89.1123 346.613C91.3594 348.404 91.8928 348.83 88.6383 366.769C87.4312 373.425 84.7743 387.104 80.5555 403.933C74.0355 429.935 63.1948 465.803 48.4258 489.82Z" fill="#603913"/>
<path d="M86.1369 354.987C84.6502 354.987 83.1894 354.282 82.2777 352.971C80.8025 350.841 81.3296 347.918 83.4594 346.444C101.233 334.117 113.309 312.577 115.759 288.821C118.182 265.289 109.659 246.997 89.7031 232.902C87.5868 231.409 87.0831 228.482 88.576 226.365C90.067 224.254 92.9921 223.745 95.1127 225.243C117.77 241.24 127.854 262.958 125.09 289.783C122.362 316.224 108.798 340.287 88.8049 354.149C87.99 354.717 87.0577 354.987 86.1369 354.987Z" fill="#603913"/>
<path d="M44.9255 6.13617L54.7736 12.8405C55.4837 13.3241 56.3863 13.427 57.1873 13.1163L68.2934 8.80411C70.3101 8.02126 72.3494 9.89053 71.7442 11.9676L68.4111 23.4055C68.1708 24.2304 68.3517 25.1205 68.8947 25.7861L76.4274 35.0161C77.7953 36.6925 76.6476 39.2096 74.4848 39.2757L62.5768 39.6405C61.7183 39.6668 60.9273 40.114 60.4619 40.8361L54.0119 50.8523C52.8407 52.6713 50.0918 52.3577 49.3607 50.3214L45.3339 39.109C45.0432 38.3003 44.3739 37.6865 43.5431 37.4672L32.0239 34.4277C29.9319 33.8756 29.3808 31.1646 31.0916 29.8402L40.5108 22.5455C41.1903 22.0193 41.5671 21.1929 41.5187 20.3353L40.8498 8.44069C40.7287 6.2803 43.1371 4.91855 44.9255 6.13617Z" fill="#FEC771"/>
<path d="M51.8363 56.7407C51.5567 56.7407 51.2751 56.7268 50.9936 56.6947C48.2108 56.3787 45.8952 54.5415 44.9491 51.9076L41.2891 41.7199L30.8309 38.9624C28.1213 38.2433 26.0945 36.0991 25.5376 33.3555C24.9812 30.6163 26.0073 27.8492 28.2175 26.1317L36.7748 19.5079L36.1677 8.70157C36.0121 5.90722 37.4275 3.31446 39.867 1.93548C42.3085 0.561292 45.2608 0.689621 47.5696 2.2606L56.5139 8.34868L66.5962 4.432C69.198 3.40591 72.1092 3.96038 74.1729 5.85216C76.2389 7.74394 77.0337 10.5933 76.248 13.2823L73.2224 23.6673L80.0641 32.0503C81.8348 34.2169 82.2126 37.1487 81.0491 39.696C79.8879 42.2476 77.4254 43.8784 74.6268 43.9655L63.8161 44.2954L57.9594 53.3885C56.5981 55.5039 54.3055 56.7407 51.8363 56.7407ZM37.2992 30.9644L44.7408 32.9294C47.0679 33.5433 48.9391 35.2612 49.7521 37.5241L52.3515 44.7666L56.5201 38.2983C57.8143 36.2825 60.0244 35.0276 62.4271 34.9543L70.1298 34.7159L65.2603 28.747C63.7419 26.8916 63.2354 24.3999 63.9091 22.0911L66.0622 14.702L58.8887 17.4873C56.6211 18.3577 54.104 18.0599 52.1274 16.7087L45.7717 12.3846L46.2045 20.0757C46.3396 22.4717 45.2838 24.7801 43.3848 26.2553L37.2992 30.9644ZM42.2831 10.0111L42.2879 10.0159L42.2831 10.0111Z" fill="#603913"/>
<path d="M93.8789 494.51C94.1336 494.51 98.0307 482.931 98.3668 482.17C102.419 473.006 107.783 464.246 114.815 457.059C130.342 441.193 154.314 437.259 174.851 444.71C196.886 452.705 209.649 472.218 214.322 494.51C214.322 494.51 93.9857 494.51 93.8789 494.51Z" fill="#FEC771"/>
<path d="M220.095 499.202H93.8759V494.511L89.7461 492.331C90.1239 491.501 91.7456 486.838 92.6185 484.337C93.3444 482.248 93.9424 480.567 94.0684 480.283C98.743 469.71 104.593 460.796 111.46 453.778C127.713 437.163 153.221 431.881 176.446 440.296C198.295 448.226 213.375 467.14 218.909 493.549L220.095 499.202ZM100.642 489.82H208.345C202.678 469.678 190.368 455.331 173.246 449.119C153.48 441.946 131.856 446.343 118.166 460.338C112.085 466.55 106.867 474.534 102.653 484.067C102.541 484.36 102.062 485.739 101.478 487.42C101.178 488.281 100.9 489.079 100.642 489.82Z" fill="#603913"/>
<path d="M149.415 499.203C149.167 499.203 148.918 499.184 148.666 499.143C146.11 498.735 144.369 496.326 144.777 493.77C144.8 493.628 147.06 479.18 144.832 469.249C144.264 466.72 145.853 464.214 148.382 463.646C150.893 463.073 153.419 464.663 153.985 467.196C156.612 478.9 154.148 494.594 154.04 495.254C153.67 497.563 151.678 499.203 149.415 499.203Z" fill="#603913"/>
<path d="M175.764 499.202C175.487 499.202 175.207 499.179 174.925 499.124C172.376 498.666 170.684 496.229 171.139 493.682C171.165 493.544 173.574 479.838 171.181 469.256C170.61 466.728 172.195 464.218 174.721 463.645C177.239 463.072 179.763 464.662 180.333 467.186C183.15 479.655 180.487 494.712 180.372 495.345C179.962 497.612 177.988 499.202 175.764 499.202Z" fill="#603913"/>
<path d="M177.557 254.511C180.237 262.197 178.836 270.015 172.546 271.757C164.684 273.934 160.637 269.271 157.845 261.625C155.492 255.185 155.264 244.363 161.59 242.466C168.137 240.502 174.878 246.824 177.557 254.511Z" fill="#603913"/>
<path d="M168.877 274.058C161.476 274.058 158.125 267.521 156.194 262.23C154.44 257.425 153.663 250.036 156.11 245.157C157.223 242.94 158.943 241.424 161.084 240.782C168.771 238.473 176.339 245.661 179.218 253.934C181.126 259.403 181.08 264.713 179.095 268.505C177.789 271.002 175.686 272.711 173.015 273.453C171.511 273.87 170.134 274.058 168.877 274.058ZM164.025 243.87C163.382 243.87 162.736 243.961 162.097 244.154C160.869 244.52 159.942 245.363 159.254 246.732C157.385 250.461 157.986 256.879 159.497 261.02C162.445 269.101 166.091 271.712 172.076 270.063C173.807 269.582 175.122 268.51 175.979 266.875C177.49 263.984 177.461 259.577 175.896 255.088C173.872 249.275 168.994 243.87 164.025 243.87Z" fill="#603913"/>
<path d="M318.358 215.884C321.038 223.57 319.84 231.317 313.89 232.941C306.453 234.97 302.525 230.266 299.739 222.618C297.392 216.175 296.989 205.414 302.971 203.637C309.162 201.797 315.679 208.198 318.358 215.884Z" fill="#603913"/>
<path d="M310.585 235.179C303.377 235.179 300.031 228.555 298.084 223.223C296.286 218.28 295.45 210.782 297.859 205.995C298.897 203.938 300.491 202.536 302.47 201.95C309.81 199.76 317.138 207.039 320.019 215.308C321.977 220.928 321.968 226.302 319.996 230.049C318.768 232.381 316.817 233.965 314.352 234.634C312.992 235.01 311.739 235.179 310.585 235.179ZM305.152 205.078C304.589 205.078 304.028 205.156 303.471 205.321C302.418 205.637 301.609 206.374 301.002 207.58C299.167 211.221 299.834 217.735 301.391 222.019C304.337 230.099 307.83 232.775 313.428 231.244C314.948 230.827 316.112 229.874 316.884 228.414C318.381 225.564 318.313 221.098 316.698 216.462C314.653 210.594 309.877 205.078 305.152 205.078Z" fill="#603913"/>
<path d="M279.417 244.082C283.534 257.654 273.987 266.964 256.763 272.581C236.818 276.893 222.687 275.954 219.027 262.992C216.311 253.374 227.634 242.387 242.684 237.578C257.735 232.769 276.515 234.518 279.417 244.082Z" fill="#603913"/>
<path d="M175.541 300.962C175.541 300.962 177.233 311.121 186.963 315.728C205.385 324.452 235.351 311.498 246.363 294.539C248.323 291.52 251.271 286.509 252.352 283.061C254.915 274.891 254.037 275.378 254.909 271.57C255.704 268.094 257.157 274.646 261.879 278.66C269.15 284.84 278.735 286.99 288.091 286.782C297.551 286.572 307.732 285.834 316.002 280.947C323.514 276.508 332.622 268.039 331.689 253.466C331.689 253.466 331.781 256.815 330.964 262.234C330.08 268.094 324.665 274.321 323.94 277.24C319.481 295.187 313.211 306.086 309.902 317.054C302.61 341.225 283.938 351.404 273.515 353.36C265.98 354.775 257.136 358.435 239.554 346.092C231.71 340.586 224.545 336.101 213.529 328.384C206.067 323.157 202.546 321.615 195.336 318.895C189.269 316.608 179.067 315.115 175.541 300.962Z" fill="#603913"/>
<path d="M262.545 359.682C256.115 359.682 247.927 357.699 236.86 349.93C233.25 347.397 229.785 345.079 226.015 342.559C221.601 339.609 216.775 336.384 210.839 332.229C203.821 327.309 200.728 325.944 193.681 323.283C192.968 323.013 192.19 322.76 191.372 322.485C186.001 320.708 177.515 317.896 172.897 307.662C171.395 304.46 170.953 301.959 170.916 301.73C170.502 299.247 172.123 296.879 174.59 296.366C177.055 295.862 179.485 297.378 180.094 299.829C180.55 301.652 181.125 303.205 181.796 304.538C183.071 306.925 185.27 309.738 188.974 311.492C205.034 319.078 232.71 306.952 242.43 291.982C244.403 288.945 247.011 284.419 247.877 281.657C249.439 276.677 249.606 275.276 249.767 273.92C249.879 272.972 249.991 272.037 250.339 270.521C251.134 267.043 253.4 266.173 254.677 265.963C258.152 265.39 259.957 268.281 261.132 270.195C262.039 271.671 263.28 273.695 264.918 275.088C272.039 281.139 281.365 282.271 287.989 282.092C296.462 281.904 306.132 281.332 313.617 276.906C320.481 272.852 324.74 267.667 326.343 261.432C327.06 256.627 327.003 253.613 327.003 253.581C326.945 251.029 328.938 248.895 331.49 248.784C334.071 248.794 336.213 250.621 336.373 253.168C336.591 256.563 336.325 259.838 335.601 262.949C334.914 267.479 332.383 271.671 330.349 275.042C329.635 276.224 328.657 277.845 328.485 278.404C325.69 289.655 322.232 298.138 319.179 305.619C317.269 310.305 315.619 314.346 314.396 318.409C306.304 345.23 285.436 355.899 274.382 357.97C273.675 358.103 272.953 358.258 272.213 358.419C269.441 359.009 266.292 359.682 262.545 359.682ZM212.171 321.817C213.415 322.614 214.746 323.512 216.22 324.542C222.091 328.655 226.862 331.844 231.227 334.762C235.057 337.322 238.579 339.677 242.251 342.251C256.422 352.201 263.774 350.634 270.252 349.241C271.07 349.067 271.866 348.898 272.65 348.751C281.005 347.18 298.607 338.257 305.412 315.695C306.765 311.215 308.575 306.777 310.492 302.077C312.444 297.289 314.567 292.081 316.548 286.002C307.533 290.647 297.235 291.27 288.197 291.472C276.399 291.742 266.257 288.535 258.843 282.232C258.472 281.921 258.122 281.595 257.787 281.27C257.528 282.182 257.215 283.235 256.828 284.468C255.422 288.943 251.796 294.784 250.3 297.088C242.872 308.528 227.636 318.317 212.171 321.817Z" fill="#603913"/>
<path d="M291.442 286.641C291.442 286.641 289.197 286.758 288.09 286.782C278.734 286.99 269.149 284.84 261.878 278.661C257.156 274.647 255.703 268.094 254.908 271.57C254.036 275.378 254.915 274.891 252.351 283.061C251.269 286.508 248.356 291.543 246.362 294.54C243.301 299.139 238.08 305.354 231.709 309.489C231.709 309.489 234.846 320.053 235.635 336.116C236.701 357.83 235.74 379.754 262.958 385.204C271.334 386.881 280.256 386.559 288.15 383.294C308.925 374.701 313.123 356.811 311.864 338.914C311.212 329.644 309.033 320.416 305.59 311.788C304.26 308.455 293.644 286.526 291.442 286.641Z" fill="#F37882"/>
<path d="M272.796 390.897C269.289 390.897 265.687 390.531 262.04 389.802C233.002 383.989 232.015 360.938 231.142 340.599L230.949 336.343C230.203 321.121 227.241 310.924 227.211 310.823C226.625 308.83 227.415 306.686 229.156 305.555C236.08 301.061 241.089 293.998 242.459 291.936C244.52 288.84 247.042 284.314 247.875 281.657C249.437 276.677 249.605 275.276 249.765 273.92C249.877 272.972 249.99 272.037 250.338 270.52C251.133 267.043 253.398 266.173 254.676 265.963C258.151 265.39 259.955 268.281 261.13 270.195C262.037 271.671 263.279 273.695 264.916 275.088C272.037 281.139 281.364 282.27 287.988 282.092C289.051 282.069 291.192 281.955 291.192 281.955C291.21 281.964 291.295 281.955 291.35 281.955C298.668 281.955 309.488 308.899 309.948 310.054C313.645 319.316 315.865 328.918 316.545 338.583C318.267 363.118 309.319 379.619 289.942 387.626C284.695 389.798 278.891 390.897 272.796 390.897ZM237.054 311.455C238.089 315.899 239.766 324.566 240.322 335.885L240.515 340.196C241.472 362.542 243.114 376.444 263.881 380.604C269.564 381.744 278.082 382.386 286.357 378.959C302.017 372.482 308.636 359.861 307.187 339.243C306.575 330.544 304.571 321.891 301.234 313.531C299.772 309.862 292.663 295.665 289.699 291.419C289.152 291.442 288.595 291.465 288.187 291.474C276.463 291.716 266.256 288.537 258.842 282.234C258.471 281.922 258.121 281.597 257.787 281.272C257.528 282.184 257.214 283.237 256.827 284.47C255.595 288.395 252.525 293.746 250.27 297.136C248.435 299.894 243.762 306.32 237.054 311.455Z" fill="#603913"/>
<path d="M274.724 354.346C272.245 354.346 270.175 352.404 270.044 349.898C270.021 349.481 267.644 307.589 251.136 279.627C249.819 277.396 250.561 274.52 252.792 273.2C255.026 271.885 257.9 272.628 259.217 274.854C276.908 304.831 279.318 347.607 279.412 349.412C279.547 351.996 277.559 354.204 274.973 354.337C274.891 354.341 274.806 354.346 274.724 354.346Z" fill="#603913"/>
<path d="M584.834 486H542.134V313.1H581.684L585.184 335.5C596.034 318 617.034 307.85 640.484 307.85C683.884 307.85 706.284 334.8 706.284 379.6V486H663.584V389.75C663.584 360.7 649.234 346.7 627.184 346.7C600.934 346.7 584.834 364.9 584.834 392.9V486ZM720.588 399.2C720.588 345.3 759.438 308.2 812.988 308.2C866.538 308.2 905.388 345.3 905.388 399.2C905.388 453.1 866.538 490.2 812.988 490.2C759.438 490.2 720.588 453.1 720.588 399.2ZM763.288 399.2C763.288 430.7 783.588 452.05 812.988 452.05C842.388 452.05 862.688 430.7 862.688 399.2C862.688 367.7 842.388 346.35 812.988 346.35C783.588 346.35 763.288 367.7 763.288 399.2ZM951.339 486L895.339 313.1H939.789L962.539 387.3C966.389 400.95 969.889 416 973.039 432.1C976.189 415.3 979.339 404.45 984.939 387.3L1008.74 313.1H1052.14L1075.24 387.3C1077.34 394.3 1084.34 420.2 1086.44 431.75C1089.24 418.8 1094.84 398.15 1097.99 387.3L1121.09 313.1H1166.24L1106.39 486H1066.49L1042.69 411.1C1035.69 388.35 1031.84 371.9 1030.44 363.15C1028.69 371.2 1025.54 383.45 1016.79 411.8L992.989 486H951.339ZM1217.5 490.55C1180.75 490.55 1158.35 469.2 1158.35 436.65C1158.35 404.8 1181.45 384.85 1222.4 381.7L1274.2 377.85V374C1274.2 350.55 1260.2 341.1 1238.5 341.1C1213.3 341.1 1199.3 351.6 1199.3 369.8H1162.9C1162.9 332.35 1193.7 307.85 1240.6 307.85C1287.15 307.85 1315.85 333.05 1315.85 381V486H1278.4L1275.25 460.45C1267.9 478.3 1244.45 490.55 1217.5 490.55ZM1231.5 458.35C1257.75 458.35 1274.55 442.6 1274.55 416V406.9L1238.5 409.7C1211.9 412.15 1201.75 420.9 1201.75 434.9C1201.75 450.65 1212.25 458.35 1231.5 458.35ZM1411.35 490.55C1361.3 490.55 1330.15 453.8 1330.15 400.25C1330.15 346.35 1361.65 307.85 1413.8 307.85C1437.95 307.85 1459.3 318 1470.15 335.15V225.6H1512.5V486H1473.3L1470.5 459.05C1460 479 1437.6 490.55 1411.35 490.55ZM1420.8 451.35C1450.55 451.35 1469.8 430 1469.8 398.85C1469.8 367.7 1450.55 346 1420.8 346C1391.05 346 1372.85 368.05 1372.85 398.85C1372.85 429.65 1391.05 451.35 1420.8 451.35ZM1590.95 490.55C1554.2 490.55 1531.8 469.2 1531.8 436.65C1531.8 404.8 1554.9 384.85 1595.85 381.7L1647.65 377.85V374C1647.65 350.55 1633.65 341.1 1611.95 341.1C1586.75 341.1 1572.75 351.6 1572.75 369.8H1536.35C1536.35 332.35 1567.15 307.85 1614.05 307.85C1660.6 307.85 1689.3 333.05 1689.3 381V486H1651.85L1648.7 460.45C1641.35 478.3 1617.9 490.55 1590.95 490.55ZM1604.95 458.35C1631.2 458.35 1648 442.6 1648 416V406.9L1611.95 409.7C1585.35 412.15 1575.2 420.9 1575.2 434.9C1575.2 450.65 1585.7 458.35 1604.95 458.35ZM1693.91 566.15V530.45H1719.46C1736.26 530.45 1746.76 526.6 1754.11 506.3L1759.01 493.35L1689.36 313.1H1734.51L1778.96 439.1L1825.86 313.1H1869.96L1785.26 524.5C1772.31 556.7 1754.11 570 1725.76 570C1713.86 570 1703.36 568.6 1693.91 566.15ZM1859.65 433.5H1900.25C1900.6 448.55 1911.8 458 1931.4 458C1951.35 458 1962.2 449.95 1962.2 437.35C1962.2 428.6 1957.65 422.3 1942.25 418.8L1911.1 411.45C1879.95 404.45 1864.9 389.75 1864.9 362.1C1864.9 328.15 1893.6 307.85 1933.5 307.85C1972.35 307.85 1998.6 330.25 1998.95 363.85H1958.35C1958 349.15 1948.2 339.7 1931.75 339.7C1914.95 339.7 1905.15 347.4 1905.15 360.35C1905.15 370.15 1912.85 376.45 1927.55 379.95L1958.7 387.3C1987.75 393.95 2002.45 407.25 2002.45 433.85C2002.45 468.85 1972.7 490.55 1930 490.55C1886.95 490.55 1859.65 467.45 1859.65 433.5Z" fill="white"/>
</svg>
