<svg width="2084" height="570" viewBox="0 0 2084 570" fill="none" xmlns="http://www.w3.org/2000/svg">
<path d="M172.508 154.399C172.508 154.399 71.4645 50.6505 68.9541 51.0618C66.4437 51.4735 107.564 205.765 111.012 201.462C126.191 182.516 158.434 162.244 172.508 154.399Z" fill="white"/>
<path d="M95.3774 76.1341C88.2628 81.9655 85.7562 86.7617 80.9471 92.7646C77.4996 97.0677 66.4448 51.4729 68.9552 51.0611C69.525 50.9677 81.8793 62.5789 90.2733 70.792L95.3774 76.1341Z" fill="#F37882"/>
<path d="M145.031 126.306C137.916 132.137 127.703 137.15 105.061 182.429C102.595 187.361 89.5231 136.828 92.0335 136.417C92.6033 136.324 112.282 94.4234 120.676 102.636L145.031 126.306Z" fill="#F37882"/>
<path d="M83.8129 98.085L74.9238 95.0801C75.1599 94.3791 80.8539 77.8424 93.3643 71.8965L97.391 80.3709C88.4966 84.5945 83.8584 97.9476 83.8129 98.085Z" fill="#603913"/>
<path d="M96.9653 145.089L87.6523 143.958C87.8333 142.46 92.3591 107.101 115.58 94.5442L120.042 102.799C101.107 113.033 97.004 144.769 96.9653 145.089Z" fill="#603913"/>
<path d="M111.233 192.291L101.879 191.572C102.016 189.78 105.651 147.394 142.394 122.423L147.667 130.183C114.749 152.552 111.265 191.897 111.233 192.291Z" fill="#603913"/>
<path d="M114.675 214.041L111.164 212.74C108.487 211.618 105.718 210.459 84.3226 132.68C82.1881 124.925 63.4958 56.7199 64.2011 50.719L64.6109 47.2102L68.1934 46.436C71.3909 45.8863 73.1156 45.6479 182.085 155.818L186.428 160.206L181.034 163.211C165.008 172.149 130.975 193.692 116.886 211.278L114.675 214.041ZM76.1182 63.6191C83.7088 95.314 105.924 177.875 114.158 200.179C130.697 182.758 159.281 165.071 171.137 158.09C138.839 125.479 95.2754 81.8829 76.1182 63.6191Z" fill="#603913"/>
<path d="M344.521 127.541C344.521 127.541 464.778 208.431 478.982 216.938C483.282 219.514 476.147 227.893 474.99 229.456C470.617 235.365 465.686 240.35 459.714 244.694C443.746 256.305 424.806 260.824 405.31 261.095C404.122 261.111 393.976 261.667 393.444 260.545C393.444 260.545 363.408 197.208 357.405 188.121C351.403 179.034 336.89 159.883 329.258 156.613C321.627 153.342 314.951 148.761 314.951 148.761C314.951 148.761 337.98 126.087 344.521 127.541Z" fill="#FEC771"/>
<path d="M398.806 265.951C395.847 265.951 393.744 265.772 392.223 265.237H390.481L389.095 262.323C375.258 233.203 357.631 196.972 353.492 190.706C346.488 180.101 333.169 163.395 327.411 160.926C319.447 157.513 312.585 152.831 312.296 152.63L307.605 149.414L311.66 145.419C322.993 134.26 338.05 121.328 345.537 122.959L346.403 123.152L347.138 123.646C348.34 124.457 467.455 204.563 481.392 212.909C483.261 214.032 484.505 215.814 484.899 217.925C485.753 222.497 482.459 227.49 479.127 231.773L478.761 232.245C474.026 238.644 468.699 243.958 462.474 248.489C447.116 259.652 427.906 265.475 405.375 265.786L404.594 265.814C402.367 265.896 400.453 265.951 398.806 265.951ZM396.719 256.51C397.977 256.57 400.226 256.588 404.241 256.437L405.237 256.405C425.798 256.121 443.197 250.903 456.955 240.903C462.393 236.946 467.061 232.287 471.22 226.666L471.724 226.006C474.122 222.928 475.063 221.187 475.43 220.262C457.988 209.46 356.677 141.37 343.217 132.318C339.829 133.418 331.174 140.014 322.573 147.976C324.946 149.346 327.954 150.953 331.107 152.305C342.319 157.11 361.133 185.255 361.32 185.539C366.733 193.734 390.146 242.699 396.719 256.51Z" fill="#603913"/>
<path d="M39.5324 493.523C39.5324 493.523 443.112 493.523 443.181 493.523C444.146 493.523 439.758 420.536 439.144 414.307C432.771 349.607 411.549 280.042 382.405 221.747C375.524 207.987 357.835 168.662 332.392 152.76C315.643 142.292 302.727 139.935 283.325 136.582C263.922 133.229 242.763 131.752 223.618 137.221C221.205 137.911 235.338 119.296 231.202 112.401C227.065 105.507 211.553 129.293 210.863 132.05C210.174 134.808 219.137 106.885 211.208 97.923C203.28 88.9602 187.422 127.569 185.699 134.119C183.975 140.668 183.285 147.563 182.596 148.597C181.907 149.631 145.366 168.591 137.783 175.14C130.199 181.69 107.447 205.131 105.379 207.2C103.31 209.268 71.2512 205.821 69.8722 206.855C68.4933 207.889 5.40902 350.604 4.72001 354.741C4.03052 358.877 15.9059 363.64 29.4683 364.658C46.8917 365.965 61.0401 362.465 68.9328 358.957C76.8256 355.45 84.2802 351.064 86.0341 349.31C87.7875 347.557 70.6451 451.373 39.5324 493.523Z" fill="white"/>
<path d="M182.597 148.597C182.469 148.789 143.959 169.806 137.783 175.141C130.199 181.69 107.447 205.132 105.379 207.2C103.31 209.269 71.2514 205.821 69.8724 206.855C68.4934 207.89 5.40909 350.604 4.72008 354.741C4.03059 358.878 15.8749 365.097 29.4684 364.658C43.0618 364.219 61.0403 362.466 68.933 358.958C76.8257 355.45 84.2804 351.065 86.0342 349.311C86.3991 348.946 85.9471 353.144 84.7223 360.401C84.7223 360.401 250.151 349.311 182.468 148.789" fill="#FEC771"/>
<path d="M47.3505 498.215C44.1324 498.215 41.1685 496.474 39.6182 493.676C38.0606 490.863 38.1568 487.409 39.8747 484.665C61.8996 449.456 76.2242 382.878 80.2826 358.567C77.2201 360.239 73.8579 361.902 70.839 363.244C66.6748 365.095 51.3451 370.995 29.1187 369.337C18.5873 368.544 6.03813 365.287 1.7341 359.804C-0.048038 357.536 -0.141879 355.379 0.0941748 353.972C0.588787 351.004 18.1224 310.88 32.7467 277.742C65.0009 204.646 65.8642 204 67.055 203.101C69.0109 201.64 70.3645 201.709 84.4621 202.978C90.7767 203.541 102.085 204.558 105.807 204.302C131.753 174.517 150.2 162.163 171.441 151.97C174.497 150.504 176.458 149.208 178.43 146.381C178.634 145.598 178.966 143.78 179.238 142.281C179.731 139.583 180.34 136.253 181.147 132.992C186.126 112.849 196.793 95.5428 205.959 92.735C209.074 91.7683 212.061 92.373 214.351 94.4439C218.066 97.7879 219.66 103.482 219.136 111.668C222.846 108.613 227.113 106.941 232.003 107.779C233.749 108.081 235.254 109.14 236.131 110.684C238.242 114.394 236.57 119.795 232.53 130.391C232.425 130.665 232.315 130.954 232.203 131.252C256.016 128.586 282.801 131.862 295.176 134.862C303.573 136.896 332.075 144.614 346.383 158.531C352.011 164.001 366.17 178.605 376.086 195.993C409.412 254.418 428.578 312.458 440.174 390.071C440.319 391.042 453.679 488.72 447.128 496.37L445.736 497.996L443.211 498.216L47.3505 498.215ZM48.3282 488.833H439.793C440.851 473.547 432.892 404.834 430.892 391.453C419.479 315.063 400.652 257.994 367.935 200.637C358.613 184.292 345.182 170.449 339.84 165.254C329.826 155.515 309.061 147.874 292.967 143.976C279.128 140.623 249.444 137.618 226.75 141.48L224.066 141.933L222.105 139.753C219.93 137.101 220.974 134.361 223.764 127.05C224.664 124.686 226.228 120.577 227.08 117.595C223.061 119.551 218.498 125.992 213.688 136.569L211.862 140.586L207.662 139.157C206.116 138.566 203.738 136.885 205.191 132.262C212.22 109.857 209.494 103.339 208.392 101.786C204.879 103.115 195.211 115.19 190.252 135.245C189.496 138.305 188.928 141.429 188.468 143.962C187.71 148.131 187.394 149.853 186.5 151.2C183.289 156.019 179.78 158.373 175.499 160.426C154.564 170.471 137.459 182.047 111.983 211.497C109.615 214.246 106.165 214.342 83.6228 212.322C79.8388 211.983 75.3705 211.58 72.759 211.442C64.4263 228.73 15.2213 340.453 9.72833 354.59C12.0898 356.354 19.6847 359.217 29.8202 359.982C49.8752 361.489 63.3657 356.294 67.0262 354.668C75.1114 351.077 81.6323 347.05 82.7159 345.992L85.6773 343.097L89.0147 345.626C91.2617 347.417 91.7951 347.843 88.5407 365.782C87.3336 372.438 84.6766 386.116 80.4578 402.946C73.9378 428.948 63.0971 464.816 48.3282 488.833Z" fill="#603913"/>
<path d="M86.0393 354C84.5526 354 83.0917 353.295 82.1801 351.984C80.7048 349.854 81.232 346.931 83.3617 345.457C101.136 333.13 113.211 311.59 115.661 287.834C118.085 264.301 109.562 246.01 89.6054 231.915C87.4891 230.422 86.9854 227.495 88.4783 225.378C89.9694 223.267 92.8944 222.758 95.0151 224.256C117.672 240.253 127.757 261.971 124.993 288.796C122.265 315.237 108.7 339.3 88.7072 353.162C87.8923 353.73 86.96 354 86.0393 354Z" fill="#603913"/>
<path d="M44.8278 5.14911L54.6759 11.8534C55.386 12.337 56.2886 12.44 57.0897 12.1292L68.1957 7.81705C70.2124 7.0342 72.2517 8.90347 71.6465 10.9805L68.3135 22.4184C68.0731 23.2434 68.2541 24.1335 68.7971 24.799L76.3297 34.0291C77.6977 35.7054 76.55 38.2225 74.3872 38.2886L62.4791 38.6534C61.6206 38.6798 60.8296 39.127 60.3642 39.849L53.9142 49.8653C52.743 51.6843 49.9942 51.3707 49.263 49.3343L45.2362 38.1219C44.9456 37.3132 44.2762 36.6994 43.4455 36.4801L31.9262 33.4406C29.8343 32.8885 29.2832 30.1775 30.994 28.8531L40.4132 21.5585C41.0926 21.0322 41.4694 20.2058 41.421 19.3483L40.7522 7.45363C40.631 5.29323 43.0394 3.93149 44.8278 5.14911Z" fill="#FEC771"/>
<path d="M51.7386 55.7536C51.459 55.7536 51.1775 55.7398 50.896 55.7077C48.1131 55.3917 45.7975 53.5545 44.8514 50.9205L41.1914 40.7328L30.7332 37.9754C28.0236 37.2562 25.9968 35.1121 25.44 32.3685C24.8836 29.6292 25.9096 26.8622 28.1198 25.1447L36.6772 18.5208L36.07 7.7145C35.9144 4.92016 37.3298 2.3274 39.7694 0.948419C42.2108 -0.425769 45.1631 -0.29744 47.472 1.27354L56.4162 7.36162L66.4985 3.44494C69.1004 2.41885 72.0115 2.97332 74.0752 4.8651C76.1413 6.75688 76.9361 9.60628 76.1504 12.2953L73.1248 22.6802L79.9665 31.0633C81.7371 33.2299 82.1149 36.1616 80.9514 38.7089C79.7903 41.2605 77.3278 42.8913 74.5291 42.9785L63.7185 43.3084L57.8617 52.4015C56.5005 54.5168 54.2079 55.7536 51.7386 55.7536ZM37.2015 29.9773L44.6432 31.9424C46.9702 32.5562 48.8414 34.2742 49.6544 36.537L52.2539 43.7795L56.4224 37.3113C57.7166 35.2955 59.9268 34.0405 62.3295 33.9672L70.0321 33.7288L65.1626 27.7599C63.6443 25.9045 63.1377 23.4128 63.8114 21.104L65.9646 13.715L58.791 16.5002C56.5234 17.3707 54.0063 17.0729 52.0298 15.7217L45.6741 11.3975L46.1069 19.0887C46.2419 21.4846 45.1861 23.793 43.2872 25.2682L37.2015 29.9773ZM42.1854 9.02405L42.1902 9.02885L42.1854 9.02405Z" fill="#603913"/>
<path d="M93.7812 493.523C94.036 493.523 97.933 481.944 98.2692 481.183C102.321 472.019 107.685 463.259 114.718 456.072C130.244 440.206 154.217 436.272 174.753 443.723C196.788 451.718 209.551 471.231 214.225 493.523C214.225 493.523 93.888 493.523 93.7812 493.523Z" fill="#FEC771"/>
<path d="M219.997 498.215H93.7782V493.524L89.6484 491.344C90.0262 490.514 91.6479 485.851 92.5208 483.35C93.2467 481.261 93.8448 479.58 93.9707 479.296C98.6453 468.723 104.495 459.809 111.362 452.791C127.615 436.176 153.123 430.894 176.349 439.309C198.197 447.239 213.277 466.153 218.811 492.562L219.997 498.215ZM100.544 488.833H208.248C202.581 468.691 190.27 454.344 173.149 448.132C153.382 440.959 131.758 445.356 118.068 459.351C111.987 465.563 106.769 473.547 102.555 483.08C102.443 483.373 101.964 484.752 101.38 486.433C101.08 487.294 100.803 488.092 100.544 488.833Z" fill="#603913"/>
<path d="M149.317 498.216C149.069 498.216 148.82 498.197 148.568 498.156C146.012 497.748 144.271 495.339 144.679 492.783C144.702 492.641 146.963 478.193 144.734 468.262C144.166 465.733 145.756 463.227 148.285 462.659C150.795 462.086 153.321 463.676 153.887 466.209C156.514 477.913 154.05 493.608 153.942 494.267C153.573 496.576 151.58 498.216 149.317 498.216Z" fill="#603913"/>
<path d="M175.666 498.215C175.389 498.215 175.11 498.192 174.828 498.137C172.278 497.679 170.586 495.242 171.042 492.695C171.067 492.557 173.477 478.851 171.083 468.269C170.513 465.741 172.098 463.23 174.624 462.658C177.141 462.085 179.665 463.675 180.235 466.199C183.053 478.668 180.389 493.725 180.274 494.357C179.864 496.625 177.89 498.215 175.666 498.215Z" fill="#603913"/>
<path d="M177.46 253.524C180.139 261.21 178.739 269.028 172.448 270.769C164.587 272.947 160.54 268.284 157.747 260.638C155.395 254.198 155.166 243.376 161.493 241.479C168.039 239.515 174.78 245.837 177.46 253.524Z" fill="#603913"/>
<path d="M168.779 273.071C161.379 273.071 158.028 266.534 156.097 261.243C154.342 256.438 153.566 249.049 156.012 244.17C157.125 241.953 158.845 240.437 160.987 239.795C168.674 237.486 176.241 244.674 179.12 252.947C181.028 258.416 180.982 263.726 178.997 267.518C177.691 270.015 175.589 271.724 172.918 272.466C171.413 272.883 170.036 273.071 168.779 273.071ZM163.928 242.883C163.284 242.883 162.638 242.974 161.999 243.166C160.771 243.533 159.844 244.376 159.157 245.745C157.288 249.474 157.888 255.892 159.4 260.033C162.347 268.114 165.994 270.725 171.978 269.076C173.71 268.595 175.025 267.523 175.881 265.887C177.393 262.997 177.363 258.59 175.799 254.101C173.774 248.288 168.896 242.883 163.928 242.883Z" fill="#603913"/>
<path d="M318.26 214.897C320.94 222.583 319.742 230.33 313.792 231.954C306.355 233.983 302.428 229.279 299.641 221.631C297.294 215.188 296.892 204.427 302.873 202.65C309.064 200.81 315.581 207.211 318.26 214.897Z" fill="#603913"/>
<path d="M310.487 234.192C303.279 234.192 299.933 227.568 297.986 222.236C296.188 217.294 295.352 209.795 297.761 205.008C298.799 202.951 300.393 201.549 302.372 200.963C309.713 198.773 317.04 206.052 319.921 214.321C321.88 219.942 321.871 225.315 319.898 229.062C318.671 231.394 316.719 232.979 314.255 233.647C312.895 234.023 311.642 234.192 310.487 234.192ZM305.055 204.091C304.491 204.091 303.93 204.169 303.374 204.334C302.32 204.65 301.511 205.388 300.904 206.593C299.07 210.235 299.736 216.748 301.294 221.032C304.239 229.113 307.732 231.788 313.33 230.257C314.851 229.84 316.014 228.888 316.786 227.427C318.284 224.577 318.215 220.111 316.6 215.475C314.555 209.607 309.78 204.091 305.055 204.091Z" fill="#603913"/>
<path d="M279.319 243.095C283.436 256.667 273.89 265.977 256.665 271.594C236.72 275.906 222.589 274.967 218.929 262.005C216.213 252.387 227.536 241.4 242.586 236.591C257.637 231.782 276.418 233.531 279.319 243.095Z" fill="#603913"/>
<path d="M175.443 299.975C175.443 299.975 177.135 310.134 186.865 314.741C205.288 323.465 235.254 310.511 246.265 293.552C248.226 290.533 251.173 285.521 252.254 282.074C254.817 273.904 253.94 274.391 254.811 270.583C255.606 267.106 257.059 273.659 261.782 277.673C269.052 283.853 278.638 286.003 287.993 285.795C297.453 285.585 307.635 284.847 315.904 279.96C323.416 275.521 332.525 267.052 331.592 252.479C331.592 252.479 331.683 255.828 330.866 261.247C329.982 267.107 324.568 273.334 323.842 276.253C319.384 294.2 313.114 305.099 309.804 316.067C302.513 340.238 283.84 350.417 273.418 352.373C265.883 353.787 257.039 357.448 239.456 345.105C231.612 339.599 224.448 335.114 213.431 327.397C205.969 322.17 202.448 320.627 195.238 317.908C189.171 315.621 178.969 314.128 175.443 299.975Z" fill="#603913"/>
<path d="M262.447 358.695C256.018 358.695 247.83 356.712 236.762 348.943C233.153 346.409 229.687 344.092 225.917 341.572C221.504 338.622 216.678 335.397 210.741 331.242C203.723 326.322 200.631 324.957 193.583 322.296C192.871 322.026 192.092 321.773 191.274 321.498C185.903 319.721 177.417 316.908 172.8 306.675C171.297 303.473 170.855 300.972 170.819 300.743C170.404 298.26 172.026 295.892 174.492 295.379C176.957 294.875 179.387 296.391 179.996 298.842C180.452 300.665 181.027 302.218 181.698 303.551C182.974 305.938 185.173 308.751 188.876 310.505C204.937 318.091 232.612 305.965 242.333 290.995C244.305 287.958 246.914 283.432 247.779 280.67C249.341 275.69 249.509 274.289 249.669 272.933C249.781 271.985 249.894 271.05 250.242 269.533C251.037 266.056 253.302 265.186 254.58 264.976C258.055 264.403 259.859 267.294 261.034 269.208C261.941 270.684 263.183 272.708 264.82 274.101C271.941 280.152 281.268 281.283 287.892 281.105C296.364 280.917 306.034 280.345 313.52 275.919C320.384 271.865 324.642 266.68 326.245 260.445C326.962 255.64 326.905 252.626 326.905 252.594C326.848 250.042 328.841 247.907 331.392 247.797C333.973 247.806 336.115 249.634 336.275 252.181C336.493 255.576 336.227 258.851 335.504 261.962C334.817 266.492 332.286 270.684 330.252 274.055C329.537 275.237 328.559 276.858 328.387 277.417C325.593 288.668 322.134 297.151 319.081 304.632C317.171 309.318 315.521 313.359 314.299 317.422C306.207 344.243 285.338 354.912 274.285 356.983C273.577 357.116 272.856 357.271 272.116 357.432C269.343 358.022 266.194 358.695 262.447 358.695ZM212.073 320.829C213.317 321.627 214.648 322.524 216.123 323.555C221.993 327.668 226.764 330.857 231.13 333.775C234.959 336.335 238.482 338.69 242.154 341.264C256.325 351.214 263.677 349.647 270.154 348.254C270.972 348.08 271.769 347.911 272.552 347.764C280.908 346.193 298.509 337.269 305.314 314.708C306.668 310.228 308.477 305.79 310.394 301.09C312.346 296.302 314.469 291.094 316.45 285.015C307.435 289.66 297.137 290.283 288.099 290.485C276.302 290.755 266.159 287.548 258.745 281.245C258.374 280.933 258.024 280.608 257.69 280.283C257.431 281.195 257.117 282.248 256.73 283.481C255.324 287.956 251.698 293.797 250.203 296.101C242.775 307.541 227.538 317.33 212.073 320.829Z" fill="#603913"/>
<path d="M291.344 285.654C291.344 285.654 289.1 285.771 287.992 285.795C278.637 286.003 269.051 283.853 261.781 277.674C257.058 273.66 255.605 267.107 254.81 270.583C253.939 274.391 254.817 273.904 252.253 282.074C251.172 285.521 248.258 290.556 246.264 293.552C243.204 298.152 237.982 304.367 231.611 308.502C231.611 308.502 234.749 319.066 235.537 335.129C236.603 356.843 235.642 378.766 262.86 384.217C271.236 385.894 280.158 385.572 288.052 382.307C308.827 373.714 313.025 355.824 311.766 337.927C311.114 328.657 308.935 319.429 305.492 310.801C304.163 307.468 293.546 285.539 291.344 285.654Z" fill="#F37882"/>
<path d="M272.698 389.91C269.192 389.91 265.589 389.544 261.942 388.815C232.904 383.002 231.917 359.951 231.044 339.612L230.852 335.356C230.105 320.134 227.143 309.937 227.114 309.836C226.527 307.843 227.318 305.699 229.058 304.568C235.982 300.074 240.991 293.01 242.361 290.949C244.422 287.853 246.944 283.327 247.778 280.67C249.34 275.69 249.507 274.289 249.668 272.933C249.78 271.984 249.892 271.05 250.24 269.533C251.035 266.056 253.3 265.186 254.578 264.976C258.053 264.403 259.858 267.294 261.033 269.208C261.939 270.684 263.181 272.708 264.819 274.101C271.939 280.152 281.266 281.283 287.89 281.105C288.953 281.082 291.094 280.967 291.094 280.967C291.112 280.977 291.197 280.967 291.252 280.967C298.57 280.967 309.39 307.912 309.851 309.066C313.548 318.329 315.767 327.931 316.447 337.596C318.17 362.131 309.221 378.631 289.844 386.639C284.597 388.811 278.793 389.91 272.698 389.91ZM236.956 310.468C237.991 314.912 239.668 323.579 240.224 334.898L240.417 339.209C241.374 361.555 243.016 375.457 263.784 379.617C269.466 380.757 277.984 381.399 286.26 377.972C301.919 371.495 308.539 358.874 307.089 338.256C306.477 329.557 304.473 320.904 301.136 312.544C299.675 308.874 292.565 294.678 289.601 290.432C289.054 290.455 288.497 290.478 288.09 290.487C276.365 290.729 266.159 287.55 258.745 281.247C258.374 280.935 258.023 280.61 257.689 280.285C257.43 281.197 257.116 282.25 256.73 283.483C255.497 287.408 252.428 292.759 250.172 296.149C248.337 298.907 243.665 305.333 236.956 310.468Z" fill="#603913"/>
<path d="M274.626 353.359C272.148 353.359 270.077 351.417 269.946 348.911C269.923 348.494 267.546 306.602 251.039 278.64C249.721 276.409 250.464 273.533 252.695 272.213C254.928 270.898 257.802 271.64 259.12 273.867C276.811 303.844 279.221 346.62 279.314 348.425C279.449 351.009 277.461 353.216 274.876 353.35C274.793 353.354 274.708 353.359 274.626 353.359Z" fill="#603913"/>
<path d="M584.736 485.013H542.036V312.113H581.586L585.086 334.513C595.936 317.013 616.936 306.863 640.386 306.863C683.786 306.863 706.186 333.813 706.186 378.613V485.013H663.486V388.763C663.486 359.713 649.136 345.713 627.086 345.713C600.836 345.713 584.736 363.913 584.736 391.913V485.013ZM720.49 398.213C720.49 344.313 759.34 307.213 812.89 307.213C866.44 307.213 905.29 344.313 905.29 398.213C905.29 452.113 866.44 489.213 812.89 489.213C759.34 489.213 720.49 452.113 720.49 398.213ZM763.19 398.213C763.19 429.713 783.49 451.063 812.89 451.063C842.29 451.063 862.59 429.713 862.59 398.213C862.59 366.713 842.29 345.363 812.89 345.363C783.49 345.363 763.19 366.713 763.19 398.213ZM951.241 485.013L895.241 312.113H939.691L962.441 386.313C966.291 399.963 969.791 415.013 972.941 431.113C976.091 414.313 979.241 403.463 984.841 386.313L1008.64 312.113H1052.04L1075.14 386.313C1077.24 393.313 1084.24 419.213 1086.34 430.763C1089.14 417.813 1094.74 397.163 1097.89 386.313L1120.99 312.113H1166.14L1106.29 485.013H1066.39L1042.59 410.113C1035.59 387.363 1031.74 370.913 1030.34 362.163C1028.59 370.213 1025.44 382.463 1016.69 410.813L992.891 485.013H951.241ZM1217.4 489.563C1180.65 489.563 1158.25 468.213 1158.25 435.663C1158.25 403.813 1181.35 383.863 1222.3 380.713L1274.1 376.863V373.013C1274.1 349.563 1260.1 340.113 1238.4 340.113C1213.2 340.113 1199.2 350.613 1199.2 368.813H1162.8C1162.8 331.363 1193.6 306.863 1240.5 306.863C1287.05 306.863 1315.75 332.063 1315.75 380.013V485.013H1278.3L1275.15 459.463C1267.8 477.313 1244.35 489.563 1217.4 489.563ZM1231.4 457.363C1257.65 457.363 1274.45 441.613 1274.45 415.013V405.913L1238.4 408.713C1211.8 411.163 1201.65 419.913 1201.65 433.913C1201.65 449.663 1212.15 457.363 1231.4 457.363ZM1411.25 489.563C1361.2 489.563 1330.05 452.813 1330.05 399.263C1330.05 345.363 1361.55 306.863 1413.7 306.863C1437.85 306.863 1459.2 317.013 1470.05 334.163V224.613H1512.4V485.013H1473.2L1470.4 458.063C1459.9 478.013 1437.5 489.563 1411.25 489.563ZM1420.7 450.363C1450.45 450.363 1469.7 429.013 1469.7 397.863C1469.7 366.713 1450.45 345.013 1420.7 345.013C1390.95 345.013 1372.75 367.063 1372.75 397.863C1372.75 428.663 1390.95 450.363 1420.7 450.363ZM1590.85 489.563C1554.1 489.563 1531.7 468.213 1531.7 435.663C1531.7 403.813 1554.8 383.863 1595.75 380.713L1647.55 376.863V373.013C1647.55 349.563 1633.55 340.113 1611.85 340.113C1586.65 340.113 1572.65 350.613 1572.65 368.813H1536.25C1536.25 331.363 1567.05 306.863 1613.95 306.863C1660.5 306.863 1689.2 332.063 1689.2 380.013V485.013H1651.75L1648.6 459.463C1641.25 477.313 1617.8 489.563 1590.85 489.563ZM1604.85 457.363C1631.1 457.363 1647.9 441.613 1647.9 415.013V405.913L1611.85 408.713C1585.25 411.163 1575.1 419.913 1575.1 433.913C1575.1 449.663 1585.6 457.363 1604.85 457.363ZM1693.81 565.163V529.463H1719.36C1736.16 529.463 1746.66 525.613 1754.01 505.313L1758.91 492.363L1689.26 312.113H1734.41L1778.86 438.113L1825.76 312.113H1869.86L1785.16 523.513C1772.21 555.713 1754.01 569.013 1725.66 569.013C1713.76 569.013 1703.26 567.613 1693.81 565.163ZM1859.56 432.513H1900.16C1900.51 447.563 1911.71 457.013 1931.31 457.013C1951.26 457.013 1962.11 448.963 1962.11 436.363C1962.11 427.613 1957.56 421.313 1942.16 417.813L1911.01 410.463C1879.86 403.463 1864.81 388.763 1864.81 361.113C1864.81 327.163 1893.51 306.863 1933.41 306.863C1972.26 306.863 1998.51 329.263 1998.86 362.863H1958.26C1957.91 348.163 1948.11 338.713 1931.66 338.713C1914.86 338.713 1905.06 346.413 1905.06 359.363C1905.06 369.163 1912.76 375.463 1927.46 378.963L1958.61 386.313C1987.66 392.963 2002.36 406.263 2002.36 432.863C2002.36 467.863 1972.61 489.563 1929.91 489.563C1886.86 489.563 1859.56 466.463 1859.56 432.513Z" fill="#1B2F40"/>
</svg>
